# xmcd
#
# Track frame offsets:
#	183
#	12885
#	26263
#	39703
#	49870
#	62425
#	76043
#	89508
#	101060
#	112265
#	125400
#	135560
#	147828
#	159548
#	170085
#	185768
#	201588
#	213820
#	226510
#	241478
#	255118
#
# Disc length: 3573 seconds
#
# Revision: 2
# Processed by: cddbd v1.5.1PL2 Copyright (c) Steve Scherf et al.
# Submitted via: audiograbber 1.83.01
#
DISCID=1b0df315
DTITLE=Various Artist - The Way I Feel ( Chicago Blues Of The 1960's)
DYEAR=1991
DGENRE=Blues
TTITLE0=Homesick James - Crossroads
TTITLE1=Jesse Fortune - Heavy Heart Beat
TTITLE2=Detroit Junior - Call My Job
TTITLE3=J B Lenior - I Feel So Good
TTITLE4=Jesse Fortune - Good Things
TTITLE5=Homesick James - My Baby's Sweet
TTITLE6=Andrew Brown - You Better Stop
TTITLE7=Harold Burrage - I Cry For You
TTITLE8=Willie Mabon - Somebody Got To Pay
TTITLE9=Jesse Fortune - Too Many Cooks
TTITLE10=T V Slim - You Can't Love Me
TTITLE11=Detroit Junior - The Way I Feel
TTITLE12=Willie Mabon - Some More
TTITLE13=Koko Taylor - Honky Tonky
TTITLE14=Willie Mabon - New Orleans Blues
TTITLE15=Big Moose - Rambling Woman
TTITLE16=Fenton Robinson - Say You're Leavin'
TTITLE17=Lillian Offitt - Oh Mama
TTITLE18=Mighty Joe Young - Hard Times
TTITLE19=Willie Mabon - Something For Nothing
TTITLE20=Willie Mabon - Some Time I Wonder
EXTD=
EXTT0=
EXTT1=
EXTT2=
EXTT3=
EXTT4=
EXTT5=
EXTT6=
EXTT7=
EXTT8=
EXTT9=
EXTT10=
EXTT11=
EXTT12=
EXTT13=
EXTT14=
EXTT15=
EXTT16=
EXTT17=
EXTT18=
EXTT19=
EXTT20=
PLAYORDER=
